<svg width="16" height="16" viewBox="0 0 16 16" fill="none" xmlns="http://www.w3.org/2000/svg">
<path fill-rule="evenodd" clip-rule="evenodd" d="M12.6667 4H3.33333C2.96514 4 2.66666 4.29848 2.66666 4.66667V12.6667C2.66666 13.0349 2.96514 13.3333 3.33333 13.3333H12.6667C13.0349 13.3333 13.3333 13.0349 13.3333 12.6667V4.66667C13.3333 4.29848 13.0349 4 12.6667 4ZM3.33333 2.66667C2.22876 2.66667 1.33333 3.5621 1.33333 4.66667V12.6667C1.33333 13.7712 2.22876 14.6667 3.33333 14.6667H12.6667C13.7712 14.6667 14.6667 13.7712 14.6667 12.6667V4.66667C14.6667 3.5621 13.7712 2.66667 12.6667 2.66667H3.33333Z" fill="#777E91"/>
<path fill-rule="evenodd" clip-rule="evenodd" d="M6.66667 8C6.29848 8 6 8.29848 6 8.66667C6 9.03486 6.29848 9.33333 6.66667 9.33333H11.3333C11.7015 9.33333 12 9.03486 12 8.66667C12 8.29848 11.7015 8 11.3333 8H6.66667ZM4.66667 10.6667C4.29848 10.6667 4 10.9651 4 11.3333C4 11.7015 4.29848 12 4.66667 12H8.66667C9.03486 12 9.33333 11.7015 9.33333 11.3333C9.33333 10.9651 9.03486 10.6667 8.66667 10.6667H4.66667Z" fill="#777E91"/>
<path fill-rule="evenodd" clip-rule="evenodd" d="M4.66667 1.33333C4.29848 1.33333 4 1.63181 4 2V4.66667C4 5.03486 4.29848 5.33333 4.66667 5.33333C5.03486 5.33333 5.33333 5.03486 5.33333 4.66667V2C5.33333 1.63181 5.03486 1.33333 4.66667 1.33333ZM11.3333 1.33333C10.9651 1.33333 10.6667 1.63181 10.6667 2V4.66667C10.6667 5.03486 10.9651 5.33333 11.3333 5.33333C11.7015 5.33333 12 5.03486 12 4.66667V2C12 1.63181 11.7015 1.33333 11.3333 1.33333Z" fill="#777E91"/>
</svg>
