<svg width="16" height="16" viewBox="0 0 16 16" fill="none" xmlns="http://www.w3.org/2000/svg">
<path fill-rule="evenodd" clip-rule="evenodd" d="M1.34843 12.2652L1.83152 10.0913C1.94154 9.59623 2.19046 9.14279 2.54907 8.78417L9.11436 2.21889C10.1558 1.17749 11.8442 1.17748 12.8856 2.21888L13.781 3.11431C14.8224 4.15571 14.8224 5.84415 13.781 6.88555L7.21574 13.4508C6.85712 13.8095 6.40368 14.0584 5.9086 14.1684L3.73466 14.6515C2.30566 14.969 1.03087 13.6942 1.34843 12.2652ZM3.13311 10.3805L2.65001 12.5545C2.54416 13.0308 2.96909 13.4558 3.44542 13.3499L5.61936 12.8668C5.85743 12.8139 6.07624 12.6968 6.25214 12.5284L3.47154 9.74777C3.30315 9.92367 3.18601 10.1425 3.13311 10.3805ZM4.41412 8.80474L7.19517 11.5858L10.919 7.86193L8.13798 5.08088L4.41412 8.80474ZM12.8382 5.94274L11.8618 6.91912L9.08079 4.13807L10.0572 3.16169C10.5779 2.64099 11.4221 2.64099 11.9428 3.16169L12.8382 4.05712C13.3589 4.57782 13.3589 5.42204 12.8382 5.94274Z" fill="#B1B5C4"/>
</svg>
