<svg width="16" height="16" viewBox="0 0 16 16" fill="none" xmlns="http://www.w3.org/2000/svg">
<g clip-path="url(#clip0_102_202)">
<path fill-rule="evenodd" clip-rule="evenodd" d="M6.69467 0.0750474C12.1405 -0.796289 16.8027 3.85734 15.8569 9.31387L15.8568 9.31424C15.2758 12.655 12.5924 15.3466 9.2366 15.8586C7.12963 16.1977 5.15435 15.6489 3.60598 14.6347L2.42535 15.1993C1.38933 15.711 0.150286 14.7043 0.575222 13.5674C0.575405 13.5669 0.57559 13.5664 0.575774 13.5659L1.13117 12.0663C0.301581 10.6029 -0.133691 8.83291 0.0707378 6.99305L0.0717463 6.98398L0.0718084 6.98399C0.508706 3.48881 3.26833 0.65822 6.68813 0.076127L6.69466 0.0750149L6.69467 0.0750474ZM6.9086 1.39111C11.4612 0.664852 15.3303 4.54355 14.5432 9.08578C14.0577 11.8773 11.8092 14.1185 9.03303 14.5409L9.03303 14.5409L9.02717 14.5418C7.15537 14.8438 5.39868 14.302 4.05877 13.3275C3.86081 13.1835 3.59985 13.1596 3.37902 13.2653L1.84569 13.9986L1.83735 14.0027C1.83695 14.0024 1.83653 14.0022 1.83611 14.002L2.49183 12.2316C2.56322 12.0388 2.5417 11.8239 2.4335 11.6491C1.63915 10.3659 1.21457 8.78242 1.39541 7.14484C1.76021 4.24319 4.06471 1.87669 6.9086 1.39111Z" fill="#777E91"/>
<path d="M5.33335 8.66667C5.70154 8.66667 6.00002 8.36819 6.00002 8C6.00002 7.63181 5.70154 7.33333 5.33335 7.33333C4.96516 7.33333 4.66669 7.63181 4.66669 8C4.66669 8.36819 4.96516 8.66667 5.33335 8.66667Z" fill="#777E91"/>
<path d="M8.00004 8.66667C8.36823 8.66667 8.66671 8.36819 8.66671 8C8.66671 7.63181 8.36823 7.33333 8.00004 7.33333C7.63185 7.33333 7.33337 7.63181 7.33337 8C7.33337 8.36819 7.63185 8.66667 8.00004 8.66667Z" fill="#777E91"/>
<path d="M10.6667 8.66667C11.0349 8.66667 11.3333 8.36819 11.3333 8C11.3333 7.63181 11.0349 7.33333 10.6667 7.33333C10.2985 7.33333 10 7.63181 10 8C10 8.36819 10.2985 8.66667 10.6667 8.66667Z" fill="#777E91"/>
</g>
<defs>
<clipPath id="clip0_102_202">
<rect width="16" height="16" fill="white"/>
</clipPath>
</defs>
</svg>
